Simulation
nRows=27
nColumns=15
endheader
time  TH_x TH_y TH_z SC_y  SC_z  SC_x  AC_y  AC_z  AC_x  GH_y  GH_z  GH_yy  EL_x  PS_y
0.0  0.000000  0.000000  0.000000  -21.311549207943393  2.4964007354838667  -5.909329313951085  56.034848931732476  14.851097059649637  5.408194811043583  35.036747539078796  17.077365883337556  -0.605815494110044  50.82626855908849  120.000000
0.040225563909774435  0.000000  0.000000  0.000000  -20.240797214618908  2.920089795693267  -5.256659085989709  55.78683938868135  14.213722013298975  5.459510975934858  34.92047555614553  16.641337826859633  0.9370678945969874  51.462102095099574  120.000000
0.08045112781954887  0.000000  0.000000  0.000000  -19.369152930766262  3.175357705488328  -4.802141416439009  55.575746303127396  13.461492026630605  5.373022722890853  34.64756977498494  16.03270036305213  2.5372825411627007  52.00065374073334  120.000000
0.1206766917293233  0.000000  0.000000  0.000000  -18.729876984702614  3.3023883179280684  -4.469276042451417  55.41807424573522  12.707174533975888  5.214441333245235  34.248088556482216  15.346426864949336  4.069014509066703  52.47652154219675  120.000000
0.16090225563909774  0.000000  0.000000  0.000000  -18.327797795848788  3.318848378969483  -4.204366063651085  55.32521994870653  12.035354158494682  5.002012923289379  33.81664188538914  14.692468293452242  5.282948583744453  52.877258416585455  120.000000
0.20112781954887218  0.000000  0.000000  0.000000  -18.1282540985052  3.2750867876444976  -3.9643315772608068  55.292390858598644  11.497988042954832  4.76716489144603  33.4266128172818  14.164127853782382  6.00080402611697  53.20212847377931  120.000000
0.2413533834586466  0.000000  0.000000  0.000000  -18.081821220375232  3.2131899798633206  -3.722710110482627  55.295935410835924  11.11046487405942  4.53643645361834  33.10338869912306  13.8338055137651  6.131477730550291  53.45603820888744  120.000000
0.28157894736842104  0.000000  0.000000  0.000000  -18.1387736011602  3.159867785782228  -3.471243966734646  55.313439437258644  10.866267109026564  4.321070273625488  32.862204227577024  13.748118470208746  5.620842911322404  53.63730635698754  120.000000
0.3218045112781955  0.000000  0.000000  0.000000  -18.254608553192174  3.1305339627590145  -3.2124422711826837  55.322200615308795  10.745794488264764  4.13050726061753  32.66311904322057  13.92467054109873  4.510357260664529  53.74859578985656  120.000000
0.3620300751879699  0.000000  0.000000  0.000000  -18.395481732148337  3.131972094802953  -2.954186731172905  55.30724397655709  10.728297141934606  3.966727853401643  32.45268980076596  14.35865782589139  2.8781618570379495  53.79446074004771  120.000000
0.40225563909774437  0.000000  0.000000  0.000000  -18.541303967400015  3.163868386662358  -2.70397702820432  55.258495821817796  10.794687246474181  3.831036252263698  32.16881984679145  15.028367851332431  0.8301437933437276  53.78023093830681  120.000000
0.4424812030075188  0.000000  0.000000  0.000000  -18.682400317745078  3.222767245316818  -2.468583259610045  55.17274181193831  10.931051137461546  3.721597877808347  31.76903332069407  15.904001496799784  -1.5392771392421662  53.71208369520441  120.000000
0.4827067669172932  0.000000  0.000000  0.000000  -18.81665259995961  3.3044934406646846  -2.251682468021859  55.05067776827496  11.127848127857478  3.636981332572213  31.229883921730575  16.951268283738916  -4.148122003932671  53.5961322589454  120.000000
0.5229323308270677  0.000000  0.000000  0.000000  -18.945427053417834  3.4036941374139666  -2.054859863318616  54.89479394057825  11.378335999634034  3.574769456531729  30.545551081174498  18.136308863516565  -6.931964485671884  53.43841380134125  120.000000
0.5631578947368421  0.000000  0.000000  0.000000  -19.071872882320342  3.5149948368604034  -1.877188251506733  54.70949640892573  11.677927244693246  3.53227976630416  29.72515722692087  19.427130032953524  -9.842716565805642  53.24396828867441  120.000000
0.6033834586466166  0.000000  0.000000  0.000000  -19.19800355327051  3.633260136541237  -1.7166930264533662  54.49875321927504  12.021656129397694  3.506755584996267  28.783258156999175  20.795071040137373  -12.840551682862925  53.01798971332477  120.000000
0.643609022556391  0.000000  0.000000  0.000000  -19.324813772406234  3.7536014375050044  -1.5703238595753632  54.26683041526029  12.404721062854037  3.4951826615671138  27.73940402115124  22.214022452044084  -15.893049069031386  52.76523277077699  120.000000
0.6838345864661654  0.000000  0.000000  0.000000  -19.45147489269798  3.871885407608219  -1.4356340141838635  54.0169872923791  12.821037554693529  3.4951964009032754  26.613241514796748  23.660405713519218  -18.969516316017145  52.49053800516812  120.000000
0.7240601503759398  0.000000  0.000000  0.000000  -19.576332189986644  3.984494437734978  -1.3101907922819074  53.752515173434865  13.264076309949074  3.5043714683071676  25.42634357269779  25.111945279566473  -22.041811147926243  52.19877658162408  120.000000
0.7642857142857142  0.000000  0.000000  0.000000  -19.697245510707045  4.08833367053101  -1.1915632788996087  53.47659513624004  13.725664205147892  3.520268232916108  24.200683883357037  26.54752760371358  -25.081973927646715  51.89494840330547  120.000000
0.8045112781954887  0.000000  0.000000  0.000000  -19.811983299133118  4.180831687298568  -1.0771918703546137  53.193059798866294  14.196875127155083  3.5398892874898924  22.960431656239155  27.946802629448342  -28.064138747978838  51.58398478927063  120.000000
0.8447368421052631  0.000000  0.000000  0.000000  -19.918640724403673  4.259907808084472  -0.9648725615751952  52.906179585591346  14.667927712019981  3.5605033932235073  21.7306135258509  29.290207763672942  -30.962119472152423  51.2707270609339  120.000000
0.8849624060150376  0.000000  0.000000  0.000000  -20.01547702127544  4.324144152854881  -0.8534418808947485  52.621203270446024  15.129084859939308  3.5793550986032  20.538089146151563  30.559327821900585  -33.75140047603807  50.95990684291479  120.000000
0.925187969924812  0.000000  0.000000  0.000000  -20.1011261948483  4.372695159077786  -0.7441090676700323  52.34377360994083  15.57113817563002  3.5953476957154433  19.410406092669714  31.7372886108881  -36.40721093602536  50.65633961046572  120.000000
0.9654135338345864  0.000000  0.000000  0.000000  -20.174068976930336  4.405560517260888  -0.6402628311477915  52.08053811070205  15.985334926421563  3.6079931843149735  18.376135647125786  32.80972138588749  -38.906633171697194  50.36523954145441  120.000000
1.0056390977443608  0.000000  0.000000  0.000000  -20.23240188894427  4.423447791745725  -0.5460157547453208  51.83827601859159  16.362377851842087  3.6176628952476  17.46296489524649  33.7651523117008  -41.2271731923011  50.09204173305659  120.000000
1.0458646616541354  0.000000  0.000000  0.000000  -20.27377854310048  4.42779711836755  -0.4663473939094162  51.624072727395486  16.69372823489537  3.6247574597466037  16.69642415359097  34.59587191522386  -43.34914250040622  49.842196329884764  120.000000
